<svg width="150" height="129" viewBox="0 0 150 129" fill="none" xmlns="http://www.w3.org/2000/svg">
<path d="M62.1234 128.175C33.5566 127.534 23.7996 126.958 17.8024 125.452C13.7449 124.452 10.2189 122.232 7.63353 119.011C5.63538 116.574 4.04633 112.855 2.81349 107.695C1.75597 103.396 1.3441 99.8195 0.756896 91.083C-0.141993 71.366 -0.356279 55.2458 0.756896 37.234C1.67526 27.2873 2.12053 15.4794 8.22073 8.59063C11.1011 5.3666 14.4517 3.29183 18.2143 2.43413C24.0918 1.07468 49.1327 0 75.0558 0C100.92 0 126.017 1.07468 131.9 2.43413C136.6 3.5088 141.009 6.72944 143.597 10.8824C149.163 21.5478 149.26 34.81 149.825 45.1839C150.059 50.1267 150.059 78.1937 149.825 83.1366C148.946 99.5313 148.239 105.332 146.24 111.346C145.005 115.143 143.95 117.146 142.125 119.367C139.261 122.784 135.611 125.057 131.661 125.883C106.94 128.148 85.9482 128.639 62.1234 128.175ZM99.9797 62.2973C86.2265 53.3439 73.0576 45.0415 59.5965 36.4475V87.8624C73.7617 78.4819 88.6949 69.8879 100.038 62.2261L99.9797 62.2973Z" fill="#CD201F"/>
<rect x="51.6667" y="25.0001" width="48.0001" height="62.8909" fill="#CD201F"/>
<path d="M75.0001 15C47.3876 15 25 37.3876 25 65.0001C25 92.6127 47.3876 115 75.0001 115C102.613 115 125 92.6127 125 65.0001C125 37.3876 102.613 15 75.0001 15ZM75.0001 85.8335L67.1084 77.4668C69.1293 75.3252 71.9168 74.0002 75.0001 74.0002C78.0835 74.0002 80.8668 75.3252 82.8918 77.4668L75.0001 85.8335ZM86.5335 73.6043C83.5793 70.4751 79.5001 68.5418 75.0001 68.5418C70.5001 68.5418 66.4209 70.4793 63.4668 73.6085L58.6168 68.4585C62.8084 64.0126 68.6001 61.2626 75.0001 61.2626C81.4002 61.2626 87.1918 64.0126 91.3835 68.4585L86.5335 73.6043ZM95.0252 64.5918C89.9002 59.1585 82.821 55.8001 75.0001 55.8001C67.1793 55.8001 60.1001 59.1626 54.9751 64.596L50.0001 59.3168C56.3959 52.5293 65.2334 48.3334 75.0001 48.3334C84.7668 48.3334 93.6044 52.5293 100 59.3168L95.0252 64.5918Z" fill="#E2E8F0"/>
</svg>
